HIERARCHY
ROOT Hips
{
	OFFSET -0.001795 -0.223333 0.028219
	CHANNELS 6 Xposition Yposition Zposition Zrotation Yrotation Xrotation 
	JOINT LeftUpLeg
	{
		OFFSET 0.069520 -0.091406 -0.006815
		CHANNELS 3 Zrotation Yrotation Xrotation
		JOINT LeftLeg
		{
			OFFSET 0.034277 -0.375199 -0.004496
			CHANNELS 3 Zrotation Yrotation Xrotation
			JOINT LeftFoot
			{
				OFFSET -0.013596 -0.397961 -0.043693
				CHANNELS 3 Zrotation Yrotation Xrotation
				JOINT LeftToe
				{
					OFFSET 0.026358 -0.055791 0.119288
					CHANNELS 3 Zrotation Yrotation Xrotation
					End Site
					{
						OFFSET 0.000000 0.000000 0.000000
					}
				}
			}
		}
	}
	JOINT RightUpLeg
	{
		OFFSET -0.067670 -0.090522 -0.004320
		CHANNELS 3 Zrotation Yrotation Xrotation
		JOINT RightLeg
		{
			OFFSET -0.038290 -0.382569 -0.008850
			CHANNELS 3 Zrotation Yrotation Xrotation
			JOINT RightFoot
			{
				OFFSET 0.015774 -0.398415 -0.042312
				CHANNELS 3 Zrotation Yrotation Xrotation
				JOINT RightToe
				{
					OFFSET -0.025372 -0.048144 0.123348
					CHANNELS 3 Zrotation Yrotation Xrotation
					End Site
					{
						OFFSET 0.000000 0.000000 0.000000
					}
				}
			}
		}
	}
	JOINT Spine
	{
		OFFSET -0.002533 0.108963 -0.026696
		CHANNELS 3 Zrotation Yrotation Xrotation
		JOINT Spine1
		{
			OFFSET 0.005487 0.135180 0.001092
			CHANNELS 3 Zrotation Yrotation Xrotation
			JOINT Spine2
			{
				OFFSET 0.001457 0.052922 0.025425
				CHANNELS 3 Zrotation Yrotation Xrotation
				JOINT Neck
				{
					OFFSET -0.002778 0.213870 -0.042857
					CHANNELS 3 Zrotation Yrotation Xrotation
					JOINT Head
					{
						OFFSET 0.005152 0.064970 0.051349
						CHANNELS 3 Zrotation Yrotation Xrotation
						End Site
						{
							OFFSET 0.000000 0.000000 0.000000
						}
					}
				}
				JOINT LeftShoulder
				{
					OFFSET 0.078845 0.121749 -0.034090
					CHANNELS 3 Zrotation Yrotation Xrotation
					JOINT LeftArm
					{
						OFFSET 0.090977 0.030469 -0.008868
						CHANNELS 3 Zrotation Yrotation Xrotation
						JOINT LeftForeArm
						{
							OFFSET 0.259612 -0.012772 -0.027456
							CHANNELS 3 Zrotation Yrotation Xrotation
							JOINT LeftHand
							{
								OFFSET 0.249234 0.008986 -0.001171
								CHANNELS 3 Zrotation Yrotation Xrotation
								End Site
								{
									OFFSET 0.000000 0.000000 0.000000
								}
							}
						}
					}
				}
				JOINT RightShoulder
				{
					OFFSET -0.081759 0.118833 -0.038615
					CHANNELS 3 Zrotation Yrotation Xrotation
					JOINT RightArm
					{
						OFFSET -0.096012 0.032551 -0.009143
						CHANNELS 3 Zrotation Yrotation Xrotation
						JOINT RightForeArm
						{
							OFFSET -0.253742 -0.013329 -0.021401
							CHANNELS 3 Zrotation Yrotation Xrotation
							JOINT RightHand
							{
								OFFSET -0.255298 0.007772 -0.005559
								CHANNELS 3 Zrotation Yrotation Xrotation
								End Site
								{
									OFFSET 0.000000 0.000000 0.000000
								}
							}
						}
					}
				}
			}
		}
	}
}
MOTION
Frames: 5
Frame Time: 0.050000
0.000000 0.946394 0.000000 -3.044156 15.100254 7.198721 13.890687 -0.766175 -13.207145 -5.226151 0.352012 -0.787246 2.917596 12.472293 17.583545 0.000000 0.000000 0.000000 -7.659299 0.261437 -12.419844 1.066543 -0.079392 5.644222 -5.544581 -13.408739 21.273662 0.000000 0.000000 0.000000 -2.163915 -1.891426 29.199613 4.788393 -0.196910 -24.136134 0.727588 -1.484781 23.182143 -5.901300 5.707699 -32.600154 0.000000 0.000000 0.000000 -31.114488 -21.668615 9.749169 -36.552724 -32.512800 4.096007 1.952413 -19.303551 0.397294 0.000000 0.000000 0.000000 22.064344 26.988711 16.831914 33.657907 36.793173 4.269203 -4.806712 18.507400 -0.083094 0.000000 0.000000 0.000000 
0.020687 0.946080 -0.001008 -3.424730 12.484861 6.622282 13.204396 -0.649847 -10.539597 -5.764948 0.385521 -2.857940 4.400588 13.953479 16.739419 0.000000 0.000000 0.000000 -9.562594 0.116864 -12.378070 3.361005 -0.471373 5.366164 -5.302781 -13.602942 22.971756 0.000000 0.000000 0.000000 -2.976913 -1.427467 28.946731 5.078504 -0.286417 -24.874476 0.840231 -0.283511 23.756967 -5.408544 5.427697 -34.325584 0.000000 0.000000 0.000000 -31.714125 -19.396339 8.295423 -36.332092 -32.243562 3.909233 -1.303172 -22.042814 1.075105 0.000000 0.000000 0.000000 21.698123 27.725459 17.112145 35.668155 37.919561 5.054487 -6.256200 18.831345 -0.259055 0.000000 0.000000 0.000000 
0.039555 0.946921 -0.002331 -3.657843 10.915950 5.666333 12.019450 -0.581475 -9.366378 -5.562064 0.410947 -2.186603 5.311041 14.829494 15.672948 0.000000 0.000000 0.000000 -9.807126 0.132663 -12.110839 2.902728 -0.370517 6.083670 -5.528955 -14.294066 24.108522 0.000000 0.000000 0.000000 -2.560554 -1.408852 28.732791 4.139568 -0.106748 -24.835722 0.957863 0.184162 23.737847 -5.037583 5.264175 -32.661658 0.000000 0.000000 0.000000 -31.312555 -19.602554 8.608075 -36.859276 -33.946935 4.451358 -0.723459 -20.850502 0.919069 0.000000 0.000000 0.000000 20.420833 27.307942 16.256967 37.194189 38.583240 5.781987 -7.426932 19.667425 -0.445538 0.000000 0.000000 0.000000 
0.055137 0.947347 -0.003601 -4.032773 9.573451 4.817219 11.125397 -0.523928 -7.851232 -5.199217 0.403099 -2.591033 6.058379 15.607502 14.966259 0.000000 0.000000 0.000000 -10.829213 0.066224 -11.069411 2.819633 -0.334173 5.219187 -3.285305 -11.353617 25.532980 0.000000 0.000000 0.000000 -3.177416 -1.108122 28.261953 4.281869 -0.180419 -24.663385 1.295082 0.341366 23.396194 -5.100922 5.225814 -31.899167 0.000000 0.000000 0.000000 -31.434783 -19.610215 8.843916 -36.405518 -32.781674 4.014996 -0.937100 -22.320296 1.026263 0.000000 0.000000 0.000000 18.326793 28.335008 15.926178 38.875021 39.185063 6.662836 -9.869279 18.556929 -0.756780 0.000000 0.000000 0.000000 
0.067250 0.948858 -0.004873 -4.108367 9.807334 3.978401 10.449221 -0.509871 -6.629211 -5.346195 0.398952 -3.177993 5.859809 15.285529 14.660348 0.000000 0.000000 0.000000 -11.028664 0.026151 -10.015999 2.936950 -0.359883 5.587620 -4.867035 -13.603371 25.170902 0.000000 0.000000 0.000000 -3.035199 -1.171568 28.244026 4.382644 -0.206225 -24.709409 1.387874 0.616225 23.053614 -5.079918 5.287143 -31.047486 0.000000 0.000000 0.000000 -31.221492 -20.113301 8.944168 -37.123831 -32.872987 4.285424 -0.737611 -23.505377 1.030291 0.000000 0.000000 0.000000 16.956329 27.418095 15.056583 40.525230 39.562185 7.381552 -11.794480 18.173010 -0.974592 0.000000 0.000000 0.000000 
